<svg width="17" height="18" viewBox="0 0 17 18" fill="none" xmlns="http://www.w3.org/2000/svg">
<path d="M8.33009 17.45C6.70037 17.45 5.10727 16.9667 3.75221 16.0613C2.39714 15.1559 1.34099 13.869 0.717324 12.3633C0.0936576 10.8576 -0.0695211 9.20084 0.248421 7.60243C0.566363 6.00403 1.35116 4.5358 2.50355 3.38342C3.65593 2.23103 5.12414 1.44625 6.72254 1.1283C8.32095 0.810362 9.97774 0.97354 11.4834 1.59721C12.9891 2.22087 14.276 3.27702 15.1814 4.63208C16.0868 5.98714 16.5701 7.58026 16.5701 9.20998C16.5675 11.3945 15.6985 13.4889 14.1537 15.0336C12.609 16.5783 10.5147 17.4473 8.33009 17.45ZM8.33009 1.96998C6.89815 1.96998 5.49839 2.3946 4.30778 3.19014C3.11717 3.98568 2.18919 5.11641 1.64121 6.43935C1.09323 7.76228 0.949869 9.21801 1.22923 10.6224C1.50858 12.0269 2.19811 13.3169 3.21064 14.3294C4.22317 15.342 5.51322 16.0315 6.91764 16.3109C8.32206 16.5902 9.77778 16.4469 11.1007 15.8989C12.4237 15.3509 13.5544 14.4229 14.35 13.2323C15.1455 12.0417 15.5701 10.6419 15.5701 9.20998C15.5595 7.29583 14.7924 5.46353 13.4361 4.11282C12.0797 2.7621 10.2443 2.00259 8.33009 1.99998V1.96998Z" fill="white"/>
<path d="M6.51276 9.21689L2.50024 14.3306L3.28696 14.9479L7.29948 9.8342L6.51276 9.21689Z" fill="white"/>
<path d="M10.1502 9.2666L9.36353 9.88391L13.376 14.9976L14.1628 14.3803L10.1502 9.2666Z" fill="white"/>
<path d="M8.33002 10.71C7.67734 10.71 7.03932 10.5164 6.49664 10.1538C5.95396 9.79123 5.53099 9.27583 5.28122 8.67284C5.03145 8.06984 4.96611 7.40633 5.09344 6.76619C5.22077 6.12605 5.53507 5.53805 5.99658 5.07653C6.45809 4.61502 7.04608 4.30073 7.68622 4.1734C8.32635 4.04606 8.9899 4.11142 9.59289 4.36119C10.1959 4.61095 10.7113 5.03393 11.0739 5.57661C11.4365 6.11929 11.63 6.75731 11.63 7.40999C11.63 8.2852 11.2824 9.12457 10.6635 9.74344C10.0446 10.3623 9.20523 10.71 8.33002 10.71ZM8.33002 5.10999C7.87512 5.10999 7.43045 5.24488 7.05221 5.49761C6.67398 5.75033 6.37919 6.10955 6.20511 6.52982C6.03103 6.95009 5.98547 7.41254 6.07422 7.8587C6.16296 8.30485 6.38201 8.71467 6.70367 9.03633C7.02533 9.35799 7.43516 9.57705 7.88132 9.6658C8.32747 9.75454 8.78993 9.70899 9.2102 9.53491C9.63047 9.36083 9.98967 9.06603 10.2424 8.6878C10.4951 8.30957 10.63 7.86489 10.63 7.40999C10.63 6.79999 10.3877 6.21497 9.95639 5.78364C9.52505 5.35231 8.94001 5.10999 8.33002 5.10999Z" fill="white"/>
</svg>
